<?xml version="1.0" encoding="utf-8"?>
<svg viewBox="0 0 500 500" width="500" height="500" xmlns="http://www.w3.org/2000/svg" xmlns:xlink="http://www.w3.org/1999/xlink" xmlns:bx="https://boxy-svg.com">
  <defs>
    <linearGradient id="gradient-0-0" gradientUnits="userSpaceOnUse" x1="-22.867" y1="-287.18" x2="-22.867" y2="-143.034" spreadMethod="pad" gradientTransform="matrix(1, 0, 0, 1.261496, -84.098526, 20.055129)" xlink:href="#gradient-0"/>
    <linearGradient id="gradient-0" bx:pinned="true">
      <stop offset="0.02" style="stop-color: rgb(229, 229, 229);"/>
      <stop offset="0.5" style="stop-color: rgb(77, 77, 77);"/>
      <stop offset="0.98" style="stop-color: rgb(229, 229, 229);"/>
    </linearGradient>
    <linearGradient id="gradient-0-1" gradientUnits="userSpaceOnUse" x1="-94.383" y1="-357.585" x2="-94.383" y2="-71.517" gradientTransform="matrix(1, 0, 0, 1, -84.10051, -35.41864)" xlink:href="#gradient-0"/>
    <linearGradient id="gradient-0-4" gradientUnits="userSpaceOnUse" x1="-308.934" y1="-321.74" x2="-308.934" y2="-107.19" gradientTransform="matrix(1, 0, 0, 1, -84.098511, -35.418152)" xlink:href="#gradient-0"/>
    <linearGradient id="gradient-0-2" gradientUnits="userSpaceOnUse" x1="-165.9" y1="-396.434" x2="-165.9" y2="-32.728" gradientTransform="matrix(1, 0, 0, 1, -84.098511, -35.419006)" xlink:href="#gradient-0"/>
    <linearGradient id="gradient-0-3" gradientUnits="userSpaceOnUse" x1="-237.417" y1="-357.586" x2="-237.417" y2="-71.517" gradientTransform="matrix(1, 0, 0, 1, -84.098541, -35.417725)" xlink:href="#gradient-0"/>
    <linearGradient id="gradient-1-0" gradientUnits="userSpaceOnUse" x1="-22.867" y1="-287.18" x2="-22.867" y2="-178.628" gradientTransform="matrix(1, 0, 0, 1, -84.099472, -55.04126)" xlink:href="#gradient-1"/>
    <linearGradient id="gradient-1" bx:pinned="true">
      <stop offset="0" style="stop-color: rgb(197, 77, 112);"/>
      <stop offset="1" style="stop-color: rgb(63, 64, 128);"/>
    </linearGradient>
    <linearGradient id="gradient-1-1" gradientUnits="userSpaceOnUse" x1="-94.383" y1="-267.591" x2="-94.383" y2="-159.039" gradientTransform="matrix(1, 0, 0, 1, -84.099503, -53.229767)" xlink:href="#gradient-1"/>
    <linearGradient id="gradient-1-2" gradientUnits="userSpaceOnUse" x1="-165.9" y1="-251.586" x2="-165.9" y2="-143.034" gradientTransform="matrix(1, 0, 0, 1, -84.099579, -40.266571)" xlink:href="#gradient-1"/>
    <linearGradient id="gradient-1-4" gradientUnits="userSpaceOnUse" x1="-308.934" y1="-215.741" x2="-308.934" y2="-107.189" gradientTransform="matrix(1, 0, 0, 1, -84.099548, -35.41861)" xlink:href="#gradient-1"/>
    <linearGradient id="gradient-1-3" gradientUnits="userSpaceOnUse" x1="-237.417" y1="-232.066" x2="-237.417" y2="-123.514" gradientTransform="matrix(1, 0, 0, 1, -84.099945, -36.866608)" xlink:href="#gradient-1"/>
  </defs>
  <g transform="rotate(10 50 100) translate(24 -38)">
    <rect x="-129.832" y="-342.221" width="45.733" height="181.84" style="stroke: rgb(0, 0, 0); stroke-width: 0px; fill: url('#gradient-0-0'); transform-origin: -106.965px -251.301px;" transform="matrix(-1, 0, 0, -1, 213.930999755859, 502.602020263673)" rx="22.867" ry="22.867"/>
    <rect x="-201.35" y="-393.004" width="45.733" height="286.068" style="stroke: rgb(0, 0, 0); stroke-width: 0px; fill: url('#gradient-0-1'); transform-origin: -178.483px -249.969px;" transform="matrix(-1, 0, 0, -1, 356.964996337775, 499.938690185606)" rx="22.867" ry="22.867"/>
    <rect x="-415.9" y="-357.158" width="45.733" height="214.55" style="stroke: rgb(0, 0, 0); stroke-width: 0px; fill: url('#gradient-0-4'); transform-origin: -393.033px -249.883px;" transform="matrix(-1, 0, 0, -1, 786.066955566406, 499.765686035127)" rx="22.867" ry="22.867"/>
    <rect x="-272.866" y="-431.853" width="45.733" height="363.706" style="stroke: rgb(0, 0, 0); stroke-width: 0px; fill: url('#gradient-0-2'); transform-origin: -249.999px -250px;" transform="matrix(-1, 0, 0, -1, 499.998962402344, 500)" rx="22.867" ry="22.867"/>
    <rect x="-344.383" y="-393.004" width="45.733" height="286.069" style="stroke: rgb(0, 0, 0); stroke-width: 0px; fill: url('#gradient-0-3'); transform-origin: -321.516px -249.969px;" transform="matrix(-1, 0, 0, -1, 643.032897949276, 499.938537597715)" rx="22.867" ry="22.867"/>
    <rect x="-129.832" y="-342.221" width="45.733" height="108.552" style="stroke-width: 0px; stroke: rgb(0, 0, 0); fill: url('#gradient-1-0'); transform-origin: -106.965px -287.945px;" transform="matrix(-1, 0, 0, -1, 213.930023193363, 575.890014648438)" rx="22.867" ry="22.867"/>
    <rect x="-201.349" y="-320.821" width="45.733" height="108.552" style="stroke-width: 0px; stroke: rgb(0, 0, 0); fill: url('#gradient-1-1'); transform-origin: -178.482px -266.545px;" transform="matrix(-1, 0, 0, -1, 356.963989257813, 533.089965820313)" rx="22.867" ry="22.867"/>
    <rect x="-272.867" y="-291.853" width="45.733" height="108.552" style="stroke-width: 0px; stroke: rgb(0, 0, 0); fill: url('#gradient-1-2'); transform-origin: -250px -237.577px;" transform="matrix(-1, 0, 0, -1, 499.999938964844, 475.154052734375)" rx="22.867" ry="22.867"/>
    <rect x="-415.901" y="-251.16" width="45.733" height="108.552" style="stroke-width: 0px; stroke: rgb(0, 0, 0); fill: url('#gradient-1-4'); transform-origin: -393.034px -196.884px;" transform="matrix(-1, 0, 0, -1, 786.067932128906, 393.767395019473)" rx="22.867" ry="22.867"/>
    <rect x="-344.384" y="-268.933" width="45.733" height="108.552" style="stroke-width: 0px; stroke: rgb(0, 0, 0); fill: url('#gradient-1-3'); transform-origin: -321.517px -214.657px;" transform="matrix(-1, 0, 0, -1, 643.033752441407, 429.314025878912)" rx="22.867" ry="22.867"/>
  </g>
</svg>